# xmcd CD database file
#
# Track frame offsets:
#	150
#	12828
#	21517
#	32961
#	43408
#	56624
#	67628
#	79822
#	89386
#	101119
#	114034
#	123177
#	136015
#	145358
#	157434
#	169798
#	181114
#	190925
#	202040
#	213761
#	226247
#	237166
#	248416
#	258424
#	267333
#	274445
#
# Disc length: 3786 seconds
#
# Revision: 2
# Processed by: cddbd v1.5.2PL0 Copyright (c) Steve Scherf et al.
# Submitted via: CDex 1.51
#
DISCID=6f0ec81a
DTITLE=Various Artist - Heralding The Hits [CD1]
DYEAR=2002
DGENRE=R&B/Soul
TTITLE0=Faye Adams - I'll Be True
TTITLE1=Charlie and Ray - I Love You Madly
TTITLE2=Faye Adams - Your Love (Has My Heart Burnin')
TTITLE3=The Nutmegs - Story Untold
TTITLE4=The Turbans - When You Dance
TTITLE5=Little Butchie Saunders - Lindy Lou
TTITLE6=Big Bob Kornegay - Man In The Phone Booth-Hello Baby
TTITLE7=Tommy Ridgley - When I Met My Girl
TTITLE8=Big Bob Korngay - Stay With Me
TTITLE9=The Mello Kings - Chapel On The Hill
TTITLE10=Tommy Ridgley - Just A Memory
TTITLE11=The Turbans - Congratulations
TTITLE12=Tommy Ridgley - Come Back Baby
TTITLE13=David Clowney - Soft Lights
TTITLE14=The Five Satins - To The Aisle
TTITLE15=Billy Myles - The Joker
TTITLE16=Billy Myles - Honey Bee
TTITLE17=Lee Allen - Walking With Mr. Lee
TTITLE18=The Five Satins - Love With No Love In Return
TTITLE19=The Silhouettes - Get A Job
TTITLE20=The Silhouettes - I Am Lonely
TTITLE21=Lee Allen - Tic Toc
TTITLE22=The Nutmegs - My Sweet Dreams
TTITLE23=Dean and Jean - We're Gonna Get Married
TTITLE24=Maurice Williams and The Zodiacs - Stay
TTITLE25=Maurice Williams and The Zodiacs - I Remember
EXTD=YEAR: 2002
EXTT0=
EXTT1=
EXTT2=
EXTT3=
EXTT4=
EXTT5=
EXTT6=
EXTT7=
EXTT8=
EXTT9=
EXTT10=
EXTT11=
EXTT12=
EXTT13=
EXTT14=
EXTT15=
EXTT16=
EXTT17=
EXTT18=
EXTT19=
EXTT20=
EXTT21=
EXTT22=
EXTT23=
EXTT24=
EXTT25=
PLAYORDER=
